<svg xmlns="http://www.w3.org/2000/svg" viewBox="0 0 430 430">
  <defs>
    <style>
      .cls-1 {
        isolation: isolate;
      }

      .cls-2, .cls-6 {
        fill: #d59f80;
      }

      .cls-3, .cls-5 {
        fill: #e8308c;
      }

      .cls-4 {
        fill: #848484;
      }

      .cls-5, .cls-6 {
        mix-blend-mode: multiply;
        opacity: 0.5;
      }

      .cls-7 {
        fill: #242424;
      }

      .cls-8 {
        fill: #121331;
      }
    </style>
  </defs>
  <g class="cls-1">
    <g id="Warstwa_1" data-name="Warstwa 1">
      <g>
        <path class="cls-2" d="M274.16,144v29.34A59,59,0,0,1,245.49,224h0v18.69c0,16.83-13.65,30-30.48,30h-2.4A30.3,30.3,0,0,1,184,253.19a29.82,29.82,0,0,1-1.9-10.54V223.14h0c-1-.65-2-1.33-3-2h0c-1-.71-1.93-1.46-2.87-2.22s-1.85-1.58-2.74-2.41c-.44-.42-.88-.84-1.31-1.27a59,59,0,0,1-13.1-19.64c-.29-.72-.57-1.45-.83-2.18s-.61-1.76-.88-2.65a58.66,58.66,0,0,1-2.61-17.37V144.42q4.89-1.11,9.4-2.38l.23-.06c1.93-.54,3.8-1.1,5.63-1.69,1-.29,1.89-.6,2.82-.92,1.85-.61,3.65-1.26,5.4-1.92,50.42-19,59.32-52,59.32-52,32.49,16.94,36.26,46.13,36.6,55.54C274.23,142.9,274.16,144,274.16,144Z"/>
        <path class="cls-3" d="M332.36,318.48v30.36A14.76,14.76,0,0,1,317.6,363.6H296.67c-18.43,1.45-28.27,5.49-35.76,9.17s-12.65,7-21.72,7H188.72c-18.12,0-20.52-13.32-57.6-16.2H112.4a14.76,14.76,0,0,1-14.76-14.76V318.48a75.83,75.83,0,0,1,75.84-75.84h8.65c0,16.83,13.64,30,30.47,30H215c16.83,0,30.48-13.17,30.48-30h11A75.83,75.83,0,0,1,332.36,318.48Z"/>
        <path class="cls-4" d="M274.16,144v-3c-.34-9.41-4.11-38.6-36.6-55.54,0,0-11.54,42.84-82.8,59-1.23.27-2.49.55-3.76.81,0,0-25.46-75,6.14-93.5a13.93,13.93,0,0,1,13.15.25c4.88,3.12,9.77,8.21,12.85,10.84a12.09,12.09,0,0,0,8.41,2.9c4.23-.21,9.74-2.2,15.88-4.52,50.27-19,72.92,15.58,73.45,30.24C281.8,117,283.78,138.23,274.16,144Z"/>
        <path class="cls-5" d="M184,253.19a29.82,29.82,0,0,1-1.9-10.54h-8.64c-1.21,0-2.42,0-3.62.08s-2.39.14-3.57.25l-1.77.19c-.59.07-1.18.14-1.76.23-1.16.16-2.29.33-3.43.55h-.11A75.17,75.17,0,0,0,134,253.69c-.68.42-1.36.84-2,1.28s-1.11.74-1.66,1.13c-.26.17-.53.35-.79.55s-.53.37-.8.58-.84.61-1.25.93q-2.35,1.79-4.56,3.77l-.35.32-.32.29-.34.31c-.27.24-.53.49-.79.74l-.72.7c-.18.17-.36.35-.52.52l-.52.52-.17.17a1.29,1.29,0,0,1-.16.17c-1,1.07-2,2.16-3,3.29-.11.13-.22.25-.32.38l-.61.72h0l-.59.72h0a4.23,4.23,0,0,0-.33.41c-.36.45-.72.9-1.06,1.36a5.32,5.32,0,0,0-.36.47l-.29.39c-.16.22-.33.44-.49.67l-.28.39c-.1.13-.2.27-.29.41s-.36.5-.53.76l-.36.53c-.15.21-.29.42-.43.64-.41.63-.82,1.27-1.21,1.91l-.27.44c-.21.34-.41.68-.61,1l-.26.44a73.3,73.3,0,0,0-3.39,6.6q-.37.83-.72,1.65c-.24.57-.48,1.13-.71,1.71-.14.36-.28.72-.41,1.09-.24.63-.47,1.26-.69,1.9l-.21.6-.31.94c-.27.85-.53,1.7-.77,2.56q-.15.48-.27,1c-.19.67-.36,1.35-.52,2-.12.48-.23,1-.34,1.45a.43.43,0,0,1,0,.11,1.55,1.55,0,0,0,0,.21c-.06.26-.12.53-.17.79,0,.07,0,.14,0,.21-.08.37-.15.73-.22,1.1-.11.63-.22,1.27-.32,1.91-.06.37-.12.74-.17,1.12-.16,1.08-.29,2.18-.4,3.28l-.09.95c-.08.94-.15,1.89-.19,2.83,0,.26,0,.52,0,.78s0,.74,0,1.12c0,.64,0,1.29,0,1.94v30.35a14.73,14.73,0,0,0,2.93,8.84q.44.56.9,1.08c.15.17.31.34.49.51a15.26,15.26,0,0,0,2.19,1.81c.39.26.8.51,1.21.74s.85.43,1.29.62a14.86,14.86,0,0,0,5.75,1.15h18.72l1.39.12,1.36.13c-.93-6.84-1.79-14.86-2.24-23.33-.74-14.15-.18-26.79,1.65-37.58,2.29-13.49,6.59-24.1,12.8-31.53a32.7,32.7,0,0,1,8-7.89,48.72,48.72,0,0,1,9.67-5.48,64.65,64.65,0,0,1,18.15-4.75S182.7,253.26,184,253.19Z"/>
        <path class="cls-6" d="M183.85,224.2l-.24-.15.25.15Z"/>
        <path class="cls-6" d="M245.49,224v5.37s0,0,0,0V224Z"/>
        <path class="cls-6" d="M245.48,224h0l-1.67,1c-.57.31-1.14.62-1.72.92s-1.15.59-1.74.86c-1.76.83-3.57,1.57-5.42,2.24-.62.22-1.24.43-1.87.62s-1.09.34-1.64.5l-.34.09-1.83.48c-.65.16-1.3.31-1.95.44l-1.13.22a58.83,58.83,0,0,1-20.57-8.14h0a58.91,58.91,0,0,1-27.36-49.79v-35.9a177.9,177.9,0,0,1-23.48,7v28.93a58.91,58.91,0,0,0,27.36,49.79h0v19.5h0a29.82,29.82,0,0,0,1.9,10.54A157.47,157.47,0,0,0,212.29,249c12.1-3,26.74-8.86,33.19-19.67,0,0,0,0,0,0V224Z"/>
        <g>
          <path class="cls-7" d="M246.44,323.63h0c0-9.76,1-17.67,2.23-17.67h.24c.52,0,2.29,1.29,5.78,4.9q9.4-9.18,18.78,0c3.5-3.61,5.27-4.89,5.79-4.9h.24c1.23,0,2.22,7.91,2.22,17.67h0v1.09a15.6,15.6,0,0,1-15.6,15.6H262a15.61,15.61,0,0,1-15.6-15.6v-2.16"/>
          <path class="cls-7" d="M266.12,343.82H262A19.12,19.12,0,0,1,243,324.72v-1a.25.25,0,0,1,0-.08c0-.18,0-.36,0-.54v-.71a105.93,105.93,0,0,1,.67-11.69c.42-3.28,1-8.23,5-8.23H249c1.14,0,2.41.37,5.86,3.64,6-4.46,12.39-4.46,18.41,0,3.45-3.27,4.72-3.61,5.86-3.64h.35c4,0,4.63,5,5,8.23a105.45,105.45,0,0,1,.68,11.67v2.36A19.12,19.12,0,0,1,266.12,343.82ZM250,323.09v1.63A12.11,12.11,0,0,0,262,336.82h4.08a12.11,12.11,0,0,0,12.1-12.1v-1.09a99.23,99.23,0,0,0-.61-12c-.47.46-1,1-1.62,1.63a3.55,3.55,0,0,1-2.47,1.07,3.45,3.45,0,0,1-2.49-1c-4.93-4.82-9-4.82-13.89,0a3.42,3.42,0,0,1-2.49,1,3.55,3.55,0,0,1-2.47-1.07c-.61-.63-1.15-1.17-1.62-1.63A95.3,95.3,0,0,0,250,323.09Z"/>
        </g>
        <path class="cls-8" d="M256.53,239.14H249V225.9a62,62,0,0,0,28.67-52.56V145.79c8.64-7.21,7.92-24.86,7-46.87q-.15-3.72-.3-7.61h0c-.32-8.9-7.25-22.3-19.88-30.69-10.81-7.19-29.71-13.5-58.3-2.7-5.94,2.25-11.16,4.12-14.82,4.3a8.59,8.59,0,0,1-6-2.06c-.83-.71-1.85-1.65-2.93-2.66A78.31,78.31,0,0,0,172.18,49a17.44,17.44,0,0,0-16.81-.32c-33.67,19.75-8.76,94.47-7.68,97.64a3.49,3.49,0,0,0,3.31,2.38,2.06,2.06,0,0,0,.26,0v24.64A62.06,62.06,0,0,0,154,191.72c.31,1.05.62,2,.93,2.81s.57,1.55.88,2.33a62.27,62.27,0,0,0,13.87,20.79c.46.46.93.92,1.4,1.36.93.87,1.9,1.72,2.89,2.54s1.94,1.55,3,2.31l.09.06c.52.38,1.05.75,1.57,1.11v14.11h-5.14c-1.27,0-2.54,0-3.76.09s-2.57.14-3.72.26c-.65.06-1.3.12-1.89.2s-1.26.15-1.83.24a79.64,79.64,0,0,0-68.15,78.55v30.36a18.29,18.29,0,0,0,18.27,18.26H131c20.29,1.59,29.78,6.41,37.42,10.28,6.25,3.18,11.66,5.92,20.31,5.92h50.6c8.6,0,14-2.76,20.25-5.93.93-.47,1.89-1,2.89-1.45,7.67-3.77,17.14-7.44,34.35-8.81H317.6a18.29,18.29,0,0,0,18.27-18.26V318.48A79.43,79.43,0,0,0,256.53,239.14ZM158.91,54.75a9.35,9.35,0,0,1,4.55-1,9.49,9.49,0,0,1,4.95,1.23,71.89,71.89,0,0,1,9.32,7.71c1.14,1,2.21,2,3.15,2.85a15.56,15.56,0,0,0,10.85,3.72c4.68-.23,10.21-2.19,16.94-4.74,25.82-9.75,42.5-4.31,52,2,11.83,7.86,16.56,19.58,16.76,25.11q.14,3.9.3,7.65c.56,13.71,1.07,26.16-.81,34-2.16-13.27-10-36.46-37.7-50.9a3.5,3.5,0,0,0-5,2.19s-.21.74-.72,2c0,.11-.09.23-.18.44a51.61,51.61,0,0,1-2.59,5.36l-.12.21c-.09.16-.18.33-.33.57-.59,1-1.13,1.91-1.69,2.78-.19.3-.39.61-.62,1-.67,1-1.39,2-2.11,3-.26.34-.52.69-.82,1.06q-1.71,2.23-3.68,4.43l-.94,1-.62.67c-.27.29-.55.57-.88.91-1,1-2,2-3.23,3.15l-1.14,1c-.72.63-1.45,1.28-2.24,1.94s-1.66,1.37-2.83,2.3l-.73.56c-1.21.92-2.34,1.75-3.46,2.54l-1.29.89-1.79,1.19-1.23.79-.37.23c-.55.35-1.1.68-1.67,1-1.09.66-2.23,1.33-3.51,2l-.38.22-3.28,1.75-1.88,1-.29.14-2.44,1.16-1.34.63c-2.21,1-4.33,1.89-6.5,2.74l-2.27.88-2.11.79-.57.2-2.6.89L169,137l-1.73.54-1,.31c-.9.27-1.81.54-2.75.8l-.13,0-.11,0c-2.89.82-6,1.6-9.2,2.33l-.46.1-.17,0C149.2,127.35,133.5,69.65,158.91,54.75Zm19.56,161.41c-.89-.73-1.76-1.49-2.59-2.27q-.62-.58-1.23-1.2a55.46,55.46,0,0,1-6.59-7.86,56.21,56.21,0,0,1-5.73-10.6c-.27-.67-.53-1.36-.79-2.08s-.54-1.54-.82-2.48a55,55,0,0,1-2.46-16.33V147.19c2.36-.57,4.64-1.16,6.81-1.77l.26-.07c1-.27,1.92-.55,2.93-.85l1-.3,1.84-.57,2.87-.94c.92-.31,1.82-.61,2.79-1l.43-.15.1,0,2.22-.83,2.37-.91c2.27-.9,4.5-1.84,6.82-2.89l1.41-.65,2.64-1.26.19-.1,2-1,3.45-1.84.5-.28c1.31-.73,2.51-1.43,3.67-2.13l1.72-1.06.37-.23,1.4-.9,1.88-1.25,1.39-1c1.19-.83,2.39-1.72,3.65-2.68.28-.2.54-.41.8-.61l.09-.07c1.19-.94,2.14-1.71,3-2.41s1.62-1.39,2.39-2.08l1.24-1.12c1.32-1.23,2.46-2.35,3.46-3.39.35-.34.67-.68,1-1s.47-.5.66-.7c.36-.38.7-.78,1.06-1.17,1.39-1.56,2.73-3.17,4-4.77.3-.39.6-.78.9-1.19.81-1.09,1.59-2.21,2.31-3.29.25-.37.49-.73.7-1.07.62-1,1.21-1.92,1.83-3l.43-.76.11-.2c1.21-2.18,2.06-4,2.61-5.28,27.76,16.38,30.94,42.62,31.23,50.59v32.28a55.13,55.13,0,0,1-26.82,47.52l-.16.09-.43.26-.89.51-.22.12c-.55.3-1.09.6-1.63.88s-1.09.55-1.63.8l-1.53.7-1.18.49c-.35.15-.72.29-1.13.45l-1.23.46-1.85.62c-.48.16-1,.3-1.49.45l-.32.09-1.72.45-.16,0-.72.17-.12,0-.75.17-.12,0c-.31.07-.61.12-.93.17l-.17,0-.64.13-.27,0-.13,0-.18,0c-.46.09-.91.16-1.3.21l-.3,0-.34,0-.28,0a3.93,3.93,0,0,1-.48.06l-.22,0c-.28,0-.57.07-.94.1l-1.23.11H219l-.35,0h-.25l-.71,0h-1.09l-.57,0h-2.29c-.59,0-1.19,0-1.78,0h-.45l-.76,0-.92-.06h-.07l-.29,0c-.36,0-.72-.05-1.07-.09l-.88-.1-.16,0a3.41,3.41,0,0,1-.46-.05h-.15l-.66-.09-.21,0-.2,0-.31,0-.19,0-1-.17-.19,0-.14,0h-.07l-.26,0-.8-.15-.83-.17-.1,0q-.94-.21-1.86-.45l-.14,0c-.59-.15-1.17-.31-1.75-.48l-.89-.27-.58-.19-.31-.1-.25-.09-.11,0-.07,0-.14,0-1.07-.38h0l-.2-.08c-.48-.17-1-.36-1.42-.55l-.21-.08-.19-.07-1.76-.77L189,223l-.49-.26-.2-.1c-.32-.16-.64-.32-1-.5l-.14-.07-.13-.08c-.32-.16-.62-.34-.92-.52l-.18-.1-.37-.21-.08,0a2.14,2.14,0,0,0-.32-.2h0l-1.11-.69-.12-.07c-.91-.58-1.84-1.21-2.76-1.87l-.07-.05h0C180.22,217.56,179.31,216.86,178.47,216.16Zm26,19,.19,0,.17,0,.18,0c.33,0,.64.09,1,.12l.62.07a3.78,3.78,0,0,0,.49.06l.63.07,1.2.1.21,0,.33,0,.83.05,1,0,.43,0c.68,0,1.36,0,2.06,0h2.43l.71,0h.81l.32,0,.75,0,.53,0,.31,0h0l.11,0,1.35-.11c.38,0,.76-.07,1.14-.12s.52-.06.78-.09l.56-.07.28,0,1.57-.25.25,0h.07a2.5,2.5,0,0,0,.38-.06l.73-.15c.39-.06.78-.14,1.17-.22s.72-.14,1.07-.23l.86-.2.17,0c.64-.16,1.29-.33,2-.52l.21,0,.15-.05c.59-.17,1.18-.34,1.71-.52s1.29-.42,2-.67l1.39-.52,1.3-.52,1.28-.53c.58-.25,1.14-.51,1.73-.79l.14-.06v12.84c0,14.86-11.86,26.5-27,26.5h-2.4a26.46,26.46,0,0,1-27-26.49h0V229.15l.26.13c.63.31,1.27.62,2,.94l1.94.85.18.07.39.15c.53.22,1,.42,1.52.59l.12.05.09,0,.16.06,1,.36.09,0,.17.06.14.05.43.14.2.07.75.24.92.28c.71.21,1.43.41,2.15.59l.11,0,1.93.46.23.06.91.18.88.17.39.08.35.06,1.12.19ZM328.87,348.84A11.28,11.28,0,0,1,317.6,360.1H297.06a3.48,3.48,0,0,0-.64,0h-.06c-18.45,1.46-28.68,5.44-37,9.52-1,.5-2,1-3,1.49-5.92,3-10.2,5.17-17.2,5.17a1.88,1.88,0,0,0-.34,0H188.72c-7,0-11.24-2.16-17.14-5.16-8.21-4.16-18.42-9.34-40.18-11h-19a11.28,11.28,0,0,1-11.27-11.26V318.48a72.61,72.61,0,0,1,62.17-71.62c.54-.09,1.09-.15,1.7-.22s1.06-.13,1.65-.18c1.07-.11,2.17-.18,3.39-.24s2.29-.08,3.44-.08h5.32a33.48,33.48,0,0,0,33.79,30H215c17.86,0,32.09-12.92,33.81-30h7.72a72.43,72.43,0,0,1,72.34,72.34Z"/>
      </g>
    </g>
  </g>
</svg>
